<?xml version="1.0" encoding="UTF-8"?>
<svg id="_Слой_1" data-name="Слой 1" xmlns="http://www.w3.org/2000/svg" viewBox="0 0 512 512">
  <defs>
    <style>
      .cls-1 {
        fill: none;
        stroke: #fff;
        stroke-miterlimit: 10;
        stroke-width: 15px;
      }
    </style>
  </defs>
  <path class="cls-1" d="M152.2,468.5s-39.35-105.34-54.97-168.71c-25.32-102.73-37.64-219.3-5.04-236.04,4.15-2.13,8.6,58.42,11.28,123.01,2.67,64.59,13.37,115.34-17.82,146.48-9.68,9.67-27.89,23.78-40.1,43.25-27.11,43.23-9.8,105.82,40.1,35.18,24.38-34.51,8.84-88.74,34.75-128.89,21.07-32.64,31.19-115.34,31.19-115.34,0,0,41.88-98.03,13.37-110.72-28.52-12.69-12.48,196.07-12.48,196.07,0,0,7.13,69.78,30.3-14.42,23.17-84.19,14.56-83.5,39.51-154.44,24.95-70.93-15.21-9.97-11.47,10.08.88,4.7-28.77,251.54,32.17,159.94,21.33-32.06,24.25-67.95,30.71-97.79,14.62-67.51,14.18-69.36,27.61-92.36,13.43-23,61.28-32.41,57.7,4.21-3.58,36.62-49.56,213.94,4.71,177.78,54.26-36.16,35.64-117.73,35.64-117.73,0,0-4.98-41.11-2.03-59.97.77-4.92,2.08-8.33,4.16-9.1,10.05-3.71,5.04,6.03,5.04,6.03,0,0-3.47,12.96-7.75,8.11"/>
  <path class="cls-1" d="M266.55,192.79s-16.98,68.39,22.91,70.37c39.95,1.99,43.13-44.43,49.29-70.37"/>
  <path class="cls-1" d="M403.83,153.31s41.55-37.8,42.25-58.95c.7-21.15,4.17-37.84,16.69-50.87"/>
  <path class="cls-1" d="M446.55,85.82s-4.88,203.39,32.67,142.19"/>
  <path class="cls-1" d="M401.77,157.81s9.95,84.37,12.79,89.99"/>
</svg>